<?xml version="1.0" encoding="utf-8"?>
<!-- Generator: Adobe Illustrator 23.0.0, SVG Export Plug-In . SVG Version: 6.00 Build 0)  -->
<svg version="1.1" id="Capa_1" xmlns="http://www.w3.org/2000/svg" xmlns:xlink="http://www.w3.org/1999/xlink" x="0px" y="0px"
	 viewBox="0 0 2560 1600" style="enable-background:new 0 0 2560 1600;" xml:space="preserve">
<style type="text/css">
	.st0{fill:#FFFFFF;stroke:#155D7B;stroke-width:39;stroke-miterlimit:10;}
	.st1{fill:#115D7B;stroke:#155D7B;stroke-width:39;stroke-miterlimit:10;}
	.st2{fill:#115D7B;}
</style>
<g>
	<path class="st0" d="M703.8,474.1c0.9,0.1,1.8,0.1,2.6,0.2c6-0.2,9.4-1.8,10-4.9c6.2-32,19.6-67.5,40.3-106.3
		c18.5-33.3,41.9-63.8,70.1-91.5c35.1-31.4,61-51.2,77.8-59.4c31.3-19,67.4-34,108.3-45c40.9-10.3,80.4-14.8,118.5-13.5l38.6,2.7
		c16,1.5,35.6,5.2,58.8,11c18.7,4.9,36.3,10.8,52.8,17.6l34,15.6c12.9,6.7,31.4,17.1,52.2,32c47.1,33.7,77.1,69.8,80.8,66.9
		c0.9-0.7,0.4-3.7-6.2-14.5c-1.4-3.7,0.5-7.9,4.1-9.2c3.3-1.2,7.2,0.4,8.8,3.8c-4.3-4.3-11-10.8-19.2-18.9c-5.7-5.6-9.1-9.1-9.6-9.6
		c-29.5-28-62.3-51.2-98.2-69.8c-19.7-11.3-49.2-22.8-88.5-34.6c-25.2-7.1-51.1-11.8-77.8-14.1c-16.6-1.7-34.7-2.3-54.2-1.8l-31.1,2
		c-26.4,2.7-49.9,6.8-70.5,12.5l-35.9,11.1c-16.8,5.8-33.7,12.9-50.6,21.4c-22.1,11.1-42.6,23.4-61.4,37.1
		c-51.7,37.9-92.3,83.2-121.7,136c-11.5,17.6-24.2,48.5-38.2,92.6c-1.3,6.4-2.6,12.8-3.8,19.2C697.7,466.5,700.8,470.3,703.8,474.1z
		"/>
</g>
<g>
	<path class="st1" d="M1013.5,430c-0.5,0.7-1.1,1.3-1.6,2c-2.7,3.4-3.8,6.1-3.2,8.2l10.2,9.7c18.7,15.9,39,29.3,61,40.3
		c35.1,17.2,70.6,27.6,106.8,31.1c14.3,1.5,28.7,2.1,43.2,1.6c11.2-0.3,21.9-1.3,32.2-2.7l6.1-0.9l17.3-3.2
		c38.2-8.9,69.9-21.6,95.3-38.1c1.3-1.4,1-5.5-0.9-12.2c-0.1-0.3-0.5-0.2-1.2,0.2c-0.3-0.6-2.4-4.5-7-5.7
		c-5.9-1.5-10.4,2.7-10.7,2.9c-7.1,3.1-14.4,6.1-21.8,9.1c-20.9,8.4-41.1,15.6-60.6,21.8c0,0-48.5,10.6-102.2,2.8
		c-12.6-1.8-25.3-4.6-38.1-8.4c-10-2.9-19.6-6.3-28.7-10.1l-17.1-7.7c-19.8-9-41.9-24.1-66.3-45.1c-1.1-0.1-2.5-0.1-4,0.2
		C1017.8,426.5,1014.9,428.7,1013.5,430z"/>
</g>
<g>
	<path class="st1" d="M1520.5,536.7c-0.4,0.4-1.1,1-2,1.7c-6.7,5.1-11.7,4.3-12.2,6.4c-0.9,3.6,13.9,10.7,22.8,16.3
		c1.8,1.2,2.8,1.8,4.1,2.7c2.3,1.6,3.1,2.5,6.2,4.3c10.6,6.2,22.4,10.4,35.4,12.6c29.5,4.3,56.1-2.6,79.8-20.7
		c12.9-10,22.9-23.5,29.7-40.3c3.2-7.9,5.2-16.9,6.1-27.2c0.6-6.7,0.1-14.8-1.6-24.3c-3.2-16-10.4-30.5-21.7-43.6
		c-7.2-7.7-13.2-13-18-16c-8.6-5.8-17.1-10-25.4-12.6c-1.2-0.8-3.2,2.3-6.1,9.2c2.8,4.3,3.8,8.3,2.5,9.4c-1.4,1.2-6-0.4-10.8-4.7
		c4.9,3.8,10.3,7.7,16.4,11.6c3.5,2.2,7,4.3,10.3,6.2c2.5,1.4,7,5.5,13.6,12.4c8,9.5,13.3,20.2,15.8,32.2c3.9,20.7-0.5,39.7-13,56.9
		c-13.7,17.6-32,27.5-54.9,29.9c-5,0.5-25.5,1.6-44.2-9.3c-3.9-2.3-4.3-3.1-10.2-6.6c-11-6.5-20.7-10.3-27.4-12.5
		C1517.4,532.5,1519,534.6,1520.5,536.7z"/>
</g>
<g>
	<path class="st1" d="M915.4,1069.8l-2.5,0.8c-5.4,1.9-8,3.3-7.8,4.1c2.5,7.6,5.3,13.8,8.6,18.8c7,12.2,18.3,22.9,33.9,32
		c23.9,12.5,48.8,14.8,74.8,6.7c8.2-3,13.8-5.4,16.7-7.3c4.8-2.8,8.7-5.4,11.7-7.8c8.4-6.8,15.1-14,19.9-21.6
		c5.3-8.1,9.2-17.1,11.6-26.9c2.7-13.6,3.1-23.8,1.2-30.7c-0.4-0.7-4.1-1-11.2-0.9c-0.3,0-0.4,0.1-0.4,0.4
		c-5.9,1.2-9.7,2.1-11.3,2.9c2.2,16.3-2.1,32-12.9,47.2c-2.1,2.8-4.5,5.4-7.2,8c-6.2,5.3-10.4,8.5-12.5,9.3
		c-6.1,3.6-12.8,6.2-20.1,7.8c-14.4,3.1-28.5,1.8-42.5-3.9l-5.2-2.5c-2.9-1.5-5.9-3.4-8.8-5.5c-3.1-2.3-5.8-4.7-8.2-7.2
		c-7.6-8.2-12.7-16.6-15.5-25.2c-0.3-0.3-1.4-0.4-3.3-0.2L915.4,1069.8"/>
</g>
<g>
	<path class="st1" d="M1310,1325.2l1-2.4c2.1-5.2,2.8-8,2.2-8.2c-11.6-4.3-20.5-12.5-26.8-24.5c-4.3-9.2-5.6-18.9-3.6-29
		c0.5-2.5,1.2-4.9,2-7.1l1.6-3.8c1.2-2.5,2.5-4.7,3.8-6.6c3.2-4.6,6.9-8.4,11.1-11.4c3.3-2.9,9.2-5.7,17.9-8.3
		c4.9-1.3,11-1.8,18.1-1.3c0.6-0.5,1.5-4,2.9-10.5c0.1-0.3,0-0.4-0.2-0.4c0.3-7.5,0.4-11.3,0.2-11.5c-18.4-1.6-34.4,1.9-47.8,10.3
		c-14.1,8.9-23.9,20.4-29.4,34.6c-1.8,4.5-3,8.8-3.7,12.9c-1.1,6.8-1.4,12.2-1,16.2c0.5,10.5,3.6,20.6,9.2,30.5
		c7.7,12.9,18.4,22.6,32.1,29c0.8,0.4,2,0.9,3.7,1.6c0.3,0.1,0.6-0.1,0.9-0.4C1304.3,1335.4,1306.3,1332.1,1310,1325.2"/>
</g>
<g>
	<path class="st1" d="M2044.7,1017l-0.7,0c-3.7-1.5-8.6,2.3-14.9,11.3c11.9,22.8,20.5,46.5,25.8,71.2c2.7,12.3,4.5,24.9,5.6,37.8
		c1.5,6.1,1.3,25.9-0.8,59.4c-5.5,43.8-19.4,83.2-41.6,118.3c-17.9,28.9-40,54.1-66.4,75.5c-19.2,15.9-41.2,29.7-66.1,41.3
		c-65.4,27.2-126.7,36.2-183.8,27c-8.6,6-10,13-4.2,21.1c16.1,3.1,35.8,4.6,59,4.4c65.3-2.5,120.8-18,166.6-46.4
		c21.2-12.2,39.5-25.4,55.1-39.6c16.1-14.3,30.4-29.6,42.9-46.1l17.4-25.5l14.7-27.1c8.9-18.6,16-38.4,21.3-59.2
		c5.2-17.5,8.8-42.7,10.9-75.9c0.4-27.2-3.6-56.1-11.9-86.8C2060.3,1035.5,2050.6,1015.3,2044.7,1017z"/>
</g>
<g>
	<path class="st1" d="M1747.5,880.4c4.2-6.3,8.4-12.6,12.5-18.9c-1-5.1-2.8-12.7-6-21.8c-2.7-7.7-3.5-7.6-4.6-11.9
		c-2.8-10.8-2.4-22.3,1.4-34.7c4.1-10.1,8.3-17,12.4-20.9c4.4-4.9,9.6-9.1,15.6-12.5l4.7-2.4c2.9-1.4,5.9-2.5,9-3.4
		c3.4-1,6.8-1.7,10.2-2.2c6.7-0.9,13.5-0.7,20.4,0.5l5.1,1.1c3.1,0.8,6.1,1.8,9.1,3.1c3.2,1.4,6.3,3,9.2,4.8c3,1.9,5.7,3.9,8,6
		c2,1.5,4.9,4.6,8.5,9.3c0.1,0.2,0.3,0.3,0.8,0.3c0.7,0.4,4.1-1.2,10.1-4.6c0.3-0.2,0.3-0.3,0.1-0.5c5.8-5,8.7-7.7,8.5-8.1
		c-13.5-17.1-29.9-28-49.2-32.5c-4-1.1-8.8-1.9-14.5-2.4c-7.9-0.4-14-0.3-18.5,0.4c-10.2,1.3-19.5,4-27.8,8.1
		c-12.3,6.3-21.8,13.5-28.5,21.7c-4.3,5.3-14.1,16.6-17.7,33.7c-3.1,14.7-0.1,25.8,5.6,46.5C1734.8,849.4,1739.5,863.8,1747.5,880.4
		z"/>
</g>
<g>
	<path class="st1" d="M1482,824.6c0.5-0.7,1-1.4,1.5-2c3.4-4.5,4.8-7.1,4.2-7.5c-6.1-4.4-10.8-7.3-14-8.6
		c-12.1-5.8-25.4-8.5-39.9-7.9c-12.3,0.7-23.9,3.8-34.7,9.6c-8.7,4.3-17.3,11.5-25.7,21.7c-7.6,10.3-12.4,20.9-14.4,31.9
		c-2.1,9.4-1.8,20.4,1.1,33c0.9,4.1,3.1,9.6,6.6,16.7c2.4,4.4,5.1,8.5,8.1,12.1c7.7,9.4,17,16.5,27.7,21.4c0,0,0.1,0.1,0.1,0.1
		c0.9,0.4,4.4-4.1,6.4-8.8c2.2-5.3,1.5-8.9,3.4-9.5c1.2-0.4,2.6,0.6,3.5,1.4c-12.4-8.9-20.7-16.5-22.8-19.1c-1.6-2-2.9-4-2.9-4
		c-0.8-1.2-1.6-2.5-2.3-3.8c-1.3-2.3-2.5-4.9-3.5-7.9l-1.2-4c-3.8-15.3-1.5-29.4,6.8-42.5c2.4-4.5,7.6-9.7,15.6-15.8
		c5.2-3.5,10.8-6.1,16.9-7.7c5.4-1.5,20.4-5.5,33,0.6c3.6,1.8,7.1,4.4,13.9,6c2.6,0.6,4.7,0.9,6.2,1c-0.9-0.4-0.9-0.4-2.6-1.1
		c1.7,0.7,1.7,0.7,2.6,1.1C1477.9,828.8,1479.9,826.7,1482,824.6z"/>
</g>
<g>
	<path class="st1" d="M1327.3,909.5c0.4-0.7,0.8-1.5,1.3-2.2c2.7-4.9,3.7-7.6,3-8c-7.1-4-12.9-6.6-17.4-7.8
		c-13.9-4.5-28.6-5.4-44-2.6c-13.2,2.8-24.3,7.4-33.4,13.9c-11.1,7.7-19.8,17.3-26.2,29c-2.7,4.9-4.8,9.9-6.3,14.9
		c-2.3,8.2-3.4,14.9-3.5,20.3c-0.5,13.6,2.3,26.7,8.5,39.3c6.8,12.5,14.6,22,23.3,28.3c11.1,8.5,23,14,35.6,16.4
		c0.9,0.7,2.3-2.6,4.4-9.9c1.4-8.2,1.9-12.1,1.5-11.9c-21.2-4.8-36.3-17.2-45.4-37.2c-2.6-6.4-4-13-4.2-19.7
		c-0.1-3.4,0.1-6.9,0.5-10.3c0.4-3.2,1.1-6.3,2.1-9.3l1.8-4.9c7.3-16.5,19.5-27.8,36.6-34.1c8-2.3,13.1-3.4,15.3-3.3
		c3.2-0.3,6.7-0.4,10.5-0.1c13.5,0.8,24.2,5.1,31.3,8.8c2.5,0.3,3.8,0.3,3.9,0c0.1-0.4-1.5-1.2-4.8-2.5
		C1323.6,914.1,1325.4,911.8,1327.3,909.5z"/>
</g>
<g>
	<path class="st1" d="M1268,1057.7l-0.8,0c-8.6,0-16.6,1.4-24.1,4.1c-6.8,2-14.5,6.6-23.1,13.8c-13.6,12.6-20.8,27.9-21.6,45.8
		c-0.1,9.4,1.3,17.7,4.2,25c3.2,8.4,8.2,16,15,22.9c14.8,13.7,31.1,20.3,48.7,19.9c7.3-0.2,12-0.7,13.8-1.5c0.3,0.1,0.4-0.8,0.2-2.5
		c-0.1-1.2-2-6.6-1-7.8c1.8-2.1,15.2,5.3,15.1,5.5c-0.2,0.3-27.2-14.1-39.6-17.9c-1-0.3-4.3-1.3-8.4-3.3c-2.3-1.1-4.6-2.5-7-4.2
		c-4.7-3.3-9.1-8.7-13.2-16.3c-1.1-2.3-2-4.8-2.6-7.3l-0.8-3.9c-0.4-2.9-0.6-5.4-0.5-7.3c0.5-12,5-21.9,13.4-29.8
		c4.6-4.2,9.4-7.3,14.6-9.4c4-2.1,10.7-3.1,20-3.2c0.7-0.9,1.5-4.7,2.3-11.4c0.2-4.7,0.2-7.8,0.1-9.3c-0.1-1.1-0.3-1.7-0.6-1.7
		C1270.7,1057.9,1269.4,1057.8,1268,1057.7z"/>
</g>
<g>
	<path class="st1" d="M1125.4,1122.6c-0.8,0.4-1.6,0.7-2.4,1.1c-5.2,2.4-7.7,4-7.4,4.8c3.3,7.3,6.3,12.8,8.9,16.5
		c5.4,7.9,11.1,14.6,17.1,20.1c-0.1,0.1,2.3,2.1,7.3,6.2c2.7,2.2,6.3,4.7,10.9,7.6c12.1,7.4,25.3,12.4,39.6,15.1
		c6.2,1,9.2,1.4,9.1,1.3c4.1,0.4,8.3,0.6,12.7,0.7c20.7,0.3,38.8-3.1,53.4-7.5c-25.4-3-34.2-4.4-34.3-4.9c0,0,0-0.6-0.3-0.7
		c-0.1,0-0.1,0-0.2,0c-2.1-7.2-3.2-10.9-3.6-11c-6.7,1-11.5,1.4-14.4,1.2c-3.9,0-7.8-0.2-11.7-0.6c-3.8-0.4-7.8-1.2-12-2.2
		c-8.3-2.4-13.5-4.2-15.8-5.5c-10.6-4.8-19.7-11.2-27.6-19.2c-8.2-8.7-14-17.3-17.5-25.6c-0.3-0.1-0.8-0.3-1.3-0.3
		c-1-0.1-1.8,0.1-2.2,0.3C1131.2,1121,1128.3,1121.8,1125.4,1122.6z"/>
</g>
<g>
	<path class="st2" d="M504.3,53.3C504.3,53.8,504.3,53.8,504.3,53.3"/>
</g>
<g>
	<path class="st1" d="M907.8,1080.7C832.9,913.6,758,746.5,683,579.4c-0.2-6.1,3.3-11.6,8.6-13.8c6.7-2.7,15.2,0.2,19,7.2
		c74.4,169.6,148.8,339.2,223.3,508.8c-1.4,2.3-3.6,5.2-7,6.3C926.9,1087.9,913.9,1094.2,907.8,1080.7z"/>
</g>
<g>
	<path class="st1" d="M1063.3,1056c-48-103.9-96-207.9-144.1-311.8c-3.3-7,0-15.3,7.3-18.4c7.3-3.1,15.9,0,19.1,7l139.8,301.2
		c1.1,7.1-1.7,14.2-7.3,18.4C1071.9,1057.1,1064.7,1056.3,1063.3,1056z"/>
</g>
<g>
	<path class="st1" d="M938.6,723.6l-0.5,0c-3.8-0.2-7.6,1.8-11.4,6.1c-2.9,4.3-3.3,8.9-1.1,13.8l189.6,383.6
		c2.7,5.2,7.3,7.8,13.6,7.9c5.4-0.2,9.6-2.8,12.5-7.9l-9.5-24.1c-0.4-0.5-0.8-1.1-1.2-1.6c-1.1-1.7-1.6-3.1-1.9-3.8
		c-0.8-2.2-2.5-6.4-4.7-12c-57.4-118.1-114.9-236.1-172.3-354.2C948.7,726.4,944.4,723.7,938.6,723.6z"/>
</g>
<g>
	<path class="st1" d="M1213.1,916.9L1213.1,916.9l-58.9-120.5c-3.4-7-0.3-15.3,6.9-18.5c7.2-3.3,15.9-0.3,19.3,6.7l0,0l58.9,120.5
		c3.4,7,0.3,15.3-6.9,18.5C1225.1,926.8,1216.5,923.8,1213.1,916.9z"/>
</g>
<g>
	<path class="st1" d="M1356.5,833.4L1356.5,833.4l-74.1-167.6c-3.1-7.1,0.3-15.3,7.7-18.3c7.4-3,15.9,0.3,19,7.4l0,0l74.1,167.6
		c3.1,7.1-0.3,15.3-7.7,18.3C1368.1,843.7,1359.6,840.4,1356.5,833.4z"/>
</g>
<g>
	<path class="st1" d="M1541.7,850.3l-178.1-373.5c-3.3-7-0.1-15.3,7.1-18.5c7.3-3.2,15.9-0.1,19.2,6.9L1568,838.6
		c3.3,7,0.1,15.3-7.1,18.5C1553.7,860.3,1545.1,857.2,1541.7,850.3z"/>
</g>
<g>
	<path class="st1" d="M1393,448c43.5,27,86.9,54.1,130.4,81.1c7.4,2.8,11.3,9.4,10.1,14.3c-1.4,6-10.9,11.1-20.6,7.1l-135-78.7
		c-6.8-4-9-12.6-4.9-19.1C1377.3,446.1,1386.2,444,1393,448z"/>
</g>
<g>
	<path class="st1" d="M1450.7,270.3l181.5,128.6c1.2,6.2,2.2,12.7,3.1,19.5c0.4,3.1,0.7,6.1,1,9.1
		c-126.2-78.1-172.8-113.8-191.8-129.7c-14.8-12.5-30-27.4-28.7-29c0.8-0.9,6,3.3,14.6,4.5C1438.4,274.4,1445.5,272.4,1450.7,270.3z
		"/>
</g>
<g>
	<path class="st1" d="M1319.1,893.1c103.3,39.6,206.6,79.2,309.9,118.8c7.4,2.9,11,11,7.9,18.2c-2.7,6.4-14.6,7.3-18.9,7.6
		c-32.2,2.4-234-90.3-303.5-122.6c-0.6-2.3-1.4-6.6-0.2-11.9C1315.4,898.4,1317.7,895,1319.1,893.1z"/>
</g>
<g>
	<path class="st1" d="M1471.8,805.6c110.9,51.2,221.8,102.4,332.7,153.7c10.2,3.6,14.7,13.2,12.4,19.3c-2.5,6.8-14.3,11.6-25.2,5.7
		c-109.1-52.3-218.3-104.6-327.4-156.9c1.2-3.6,2.4-7.2,3.7-10.8C1469.2,812.8,1470.5,809.2,1471.8,805.6z"/>
</g>
<g>
	<path class="st1" d="M1749.1,826.6c23.1,42.5,46.3,85,69.4,127.5c2.7,17.2-2.2,29.7-8,30.8c-5.4,1-12-8.7-17.7-17.8
		c-24-38.1-41-65.2-55.4-119.1c-2.5-9.5-5.8-22.9-8.8-39.4c0.8-1.1,1.6-1.6,2.3-1.8C1737.5,805,1747.8,824.2,1749.1,826.6z"/>
</g>
<g>
	<path class="st1" d="M1874,753.2l-2.2,0.3c-7,1.9-10.9,3.1-11.6,3.7c0.1,0.8,0.4,5.4-3,8.4c-0.9,0.8-1.9,1.3-2.8,1.6
		c61.5,92.8,123.1,185.5,184.6,278.3c0.5,0.4,1.1,0.9,1.7,1.3c2.6,1.8,5.2,2.8,7.3,3.4c0.7-0.1,4.7-3.9,12-11.3
		c-1.8-7.6-2.7-11.4-2.6-11.4c0,0,0.4,1.5,1.2,4.6C1997.1,939.1,1935.6,846.1,1874,753.2z"/>
</g>
<g>
	<path class="st1" d="M1347.3,1193.4L1347.3,1193.4l240.1,88.2c7.5,2.7,11.2,10.8,8.4,18c-2.9,7.2-11.2,10.8-18.7,8l0,0l-240.1-88.2
		c-7.5-2.7-11.2-10.8-8.4-18C1331.5,1194.2,1339.9,1190.6,1347.3,1193.4z"/>
</g>
<g>
	<path class="st1" d="M1258.1,1167.9c4.7,1.7,9.4,3.5,14.1,5.2c-2.1-0.4-4.2-0.8-6.3-1.2c-2.3-1.1-3.5-1.6-3.6-1.4
		c-0.1,0.1,0.4,0.5,1.3,1.1c0,1.6,0.2,3.9,1,6.5c0.3,0.9,0.8,2.7,1.8,4.3c2.6,4.2,6.9,5.8,8.4,6.3c25.7,11.8,51.5,23.6,77.2,35.4
		c4,1.4,7.6,1.5,10.9,0.2c5.4-2.1,8.5-6.2,9.2-12.4c0.1-5.1-2.1-9.2-6.5-12.3c-35.1-10.9-70.2-21.8-105.4-32.7
		C1259.6,1167.2,1258.9,1167.5,1258.1,1167.9z"/>
</g>
<g>
	<path class="st1" d="M1297.7,1305.2c0.8,1.6,2.4,5.5,1.5,10.4c-1.4,7.9-8.2,11.7-9.2,12.3c1.6,1.2,3.4,2.6,5.6,3.8
		c3.8,2.2,7.3,3.5,10.2,4.3l382.1,145.2c8.1,0.3,15.6,1.3,22.5,2.9c3-1.2,6.3-1.6,9.7-1.2c6.6-8.4,4.9-15.6-5.1-21.4l-383-145.6
		C1320.6,1312.3,1309.1,1308.7,1297.7,1305.2z"/>
</g>
<g>
	<path class="st1" d="M1275,1053L1275,1053l283.3,102.4c7.5,2.7,11.3,10.7,8.5,17.9c-2.8,7.2-11.2,10.8-18.6,8.1l0,0l-283.3-102.4
		c-7.5-2.7-11.3-10.7-8.5-17.9C1259.1,1053.9,1267.5,1050.3,1275,1053z"/>
</g>
<g>
	<path class="st1" d="M1277.8,1030.4L1277.8,1030.4l281.1,121c7.3,3.1,10.6,11.4,7.3,18.4c-3.3,7-11.8,10.2-19.1,7l0,0l-281.1-121
		c-7.3-3.1-10.6-11.4-7.3-18.4C1261.9,1030.4,1270.5,1027.2,1277.8,1030.4z"/>
</g>
<g>
	<path class="st1" d="M717,461.2c-2.1,37.2-4.3,74.4-6.4,111.6c-0.1,1.5-0.8,7-5.2,10.2c-5.7,4.1-15.4,3.1-22.4-3.6
		c3.9-38.9,7.8-77.8,11.6-116.7c2.8-10.3,11.5-14.8,16.4-13.1C714.6,450.9,716.9,455.8,717,461.2z"/>
</g>
<path class="st1" d="M1702.2,434.9"/>
<path class="st1" d="M1470.8,401.3"/>
</svg>
